<svg width="275" height="28" viewBox="0 0 275 28" fill="none" xmlns="http://www.w3.org/2000/svg">
<g clip-path="url(#clip0_473_113)">
<path d="M16.5469 11.2V16.8" stroke="#7F7F7F" stroke-miterlimit="10"/>
<path d="M20.4597 15.0187V12.9812" stroke="#7F7F7F" stroke-miterlimit="10"/>
<path d="M24.3728 14.7625V13.2375" stroke="#7F7F7F" stroke-miterlimit="10"/>
<path d="M59.4248 14.7625V13.2375" stroke="#7F7F7F" stroke-miterlimit="10"/>
<path d="M28.2859 14.5062V13.4895" stroke="#7F7F7F" stroke-miterlimit="10"/>
<path d="M32.199 16.9008V11.0991" stroke="#7F7F7F" stroke-miterlimit="10"/>
<path d="M36.1118 19.8541V8.14575" stroke="#7F7F7F" stroke-miterlimit="10"/>
<path d="M40.0376 26.7271V1.27295" stroke="#7F7F7F" stroke-miterlimit="10"/>
<path d="M43.9507 18.8332V9.16235" stroke="#7F7F7F" stroke-miterlimit="10"/>
<path d="M47.8635 16.5438V11.4521" stroke="#7F7F7F" stroke-miterlimit="10"/>
<path d="M51.7766 18.8332V9.16235" stroke="#7F7F7F" stroke-miterlimit="10"/>
<path d="M55.6897 15.5271V12.4729" stroke="#7F7F7F" stroke-miterlimit="10"/>
<path d="M63.5283 15.5271V12.4729" stroke="#7F7F7F" stroke-miterlimit="10"/>
<path d="M67.4414 18.5812V9.4187" stroke="#7F7F7F" stroke-miterlimit="10"/>
<path d="M95.0356 14.7625V13.2375" stroke="#7F7F7F" stroke-miterlimit="10"/>
<path d="M99.1394 15.5271V12.4729" stroke="#7F7F7F" stroke-miterlimit="10"/>
<path d="M103.052 13.7458V14.2542" stroke="#7F7F7F" stroke-miterlimit="10"/>
<path d="M71.3545 22.4001V5.6001" stroke="#7F7F7F" stroke-miterlimit="10"/>
<path d="M75.2673 17.3083V10.6917" stroke="#7F7F7F" stroke-miterlimit="10"/>
<path d="M79.1804 15.5271V12.4729" stroke="#7F7F7F" stroke-miterlimit="10"/>
<path d="M83.1062 14.7625V13.2375" stroke="#7F7F7F" stroke-miterlimit="10"/>
<path d="M107.131 15.5271V12.4729" stroke="#7F7F7F" stroke-miterlimit="10"/>
<path d="M111.043 18.5812V9.4187" stroke="#7F7F7F" stroke-miterlimit="10"/>
<path d="M114.957 15.7793V12.2168" stroke="#7F7F7F" stroke-miterlimit="10"/>
<path d="M118.882 17.3083V10.6917" stroke="#7F7F7F" stroke-miterlimit="10"/>
<path d="M122.795 15.5271V12.4729" stroke="#7F7F7F" stroke-miterlimit="10"/>
<path d="M126.708 14.7625V13.2375" stroke="#7F7F7F" stroke-miterlimit="10"/>
<path d="M87.019 18.5812V9.4187" stroke="#7F7F7F" stroke-miterlimit="10"/>
<path d="M90.9321 16.0354V11.9646" stroke="#7F7F7F" stroke-miterlimit="10"/>
<path d="M131.371 11.2V16.8" stroke="#7F7F7F" stroke-miterlimit="10"/>
<path d="M135.284 15.0187V12.9812" stroke="#7F7F7F" stroke-miterlimit="10"/>
<path d="M139.21 14.7625V13.2375" stroke="#7F7F7F" stroke-miterlimit="10"/>
<path d="M174.249 16.5438V11.4521" stroke="#7F7F7F" stroke-miterlimit="10"/>
<path d="M143.123 14.5062V13.4895" stroke="#7F7F7F" stroke-miterlimit="10"/>
<path d="M262.038 13.2375V14.7625" stroke="#7F7F7F" stroke-miterlimit="10"/>
<path d="M257.362 10.6917V17.3083" stroke="#7F7F7F" stroke-miterlimit="10"/>
<path d="M249.536 13.2375V14.7625" stroke="#7F7F7F" stroke-miterlimit="10"/>
<path d="M147.036 16.9008V11.0991" stroke="#7F7F7F" stroke-miterlimit="10"/>
<path d="M150.949 19.8541V8.14575" stroke="#7F7F7F" stroke-miterlimit="10"/>
<path d="M154.862 17.3083V10.6917" stroke="#7F7F7F" stroke-miterlimit="10"/>
<path d="M158.775 18.8332V9.16235" stroke="#7F7F7F" stroke-miterlimit="10"/>
<path d="M162.7 22.4001V5.6001" stroke="#7F7F7F" stroke-miterlimit="10"/>
<path d="M166.614 21.3792V6.6167" stroke="#7F7F7F" stroke-miterlimit="10"/>
<path d="M170.526 19.8541V8.14575" stroke="#7F7F7F" stroke-miterlimit="10"/>
<path d="M178.353 21.3792V6.6167" stroke="#7F7F7F" stroke-miterlimit="10"/>
<path d="M182.278 24.1813V3.81885" stroke="#7F7F7F" stroke-miterlimit="10"/>
<path d="M209.873 14.7625V13.2375" stroke="#7F7F7F" stroke-miterlimit="10"/>
<path d="M213.976 15.5271V12.4729" stroke="#7F7F7F" stroke-miterlimit="10"/>
<path d="M217.889 13.7458V14.2542" stroke="#7F7F7F" stroke-miterlimit="10"/>
<path d="M266.408 13.7458V14.2542" stroke="#7F7F7F" stroke-miterlimit="10"/>
<path d="M7.65356 13.2375V14.7625" stroke="#7F7F7F" stroke-miterlimit="10"/>
<path d="M12.0239 13.7458V14.2542" stroke="#7F7F7F" stroke-miterlimit="10"/>
<path d="M253.322 15.5271V12.4729" stroke="#7F7F7F" stroke-miterlimit="10"/>
<path d="M245.331 13.7458V14.2542" stroke="#7F7F7F" stroke-miterlimit="10"/>
<path d="M186.191 28V0" stroke="#7F7F7F" stroke-miterlimit="10"/>
<path d="M190.104 21.3792V6.6167" stroke="#7F7F7F" stroke-miterlimit="10"/>
<path d="M194.017 18.5812V9.4187" stroke="#7F7F7F" stroke-miterlimit="10"/>
<path d="M197.93 16.0354V11.9646" stroke="#7F7F7F" stroke-miterlimit="10"/>
<path d="M221.967 15.5271V12.4729" stroke="#7F7F7F" stroke-miterlimit="10"/>
<path d="M225.88 18.5812V9.4187" stroke="#7F7F7F" stroke-miterlimit="10"/>
<path d="M229.793 15.7793V12.2168" stroke="#7F7F7F" stroke-miterlimit="10"/>
<path d="M233.706 17.3083V10.6917" stroke="#7F7F7F" stroke-miterlimit="10"/>
<path d="M237.619 15.5271V12.4729" stroke="#7F7F7F" stroke-miterlimit="10"/>
<path d="M241.545 14.7625V13.2375" stroke="#7F7F7F" stroke-miterlimit="10"/>
<path d="M201.843 18.5812V9.4187" stroke="#7F7F7F" stroke-miterlimit="10"/>
<path d="M205.769 16.0354V11.9646" stroke="#7F7F7F" stroke-miterlimit="10"/>
<path d="M274.031 13.998H0.0307617" stroke="#7F7F7F" stroke-miterlimit="10"/>
</g>
<defs>
<clipPath id="clip0_473_113">
<rect width="274" height="28" fill="white" transform="translate(0.0307617)"/>
</clipPath>
</defs>
</svg>
