<svg width="202" height="25" viewBox="0 0 202 25" fill="none" xmlns="http://www.w3.org/2000/svg">
<path d="M18.335 8.41626V6.41626H17.135H7.53496H6.35796V8.41626H7.53496H17.135H18.335ZM6.33496 11.4163H18.335V13.4163H6.33496V11.4163ZM6.33496 16.4163H18.335V18.4163H6.33496V16.4163Z" fill="#C9AC8C"/>
<path d="M196.381 17.6663C198.438 16.7638 199.88 14.8027 199.88 12.4163C199.88 10.0298 198.438 8.06868 196.381 7.16626V8.33293C197.773 9.14143 198.713 10.6937 198.713 12.4163C198.713 14.1388 197.773 15.6911 196.381 16.4996V17.6663Z" fill="#C9AC8C"/>
<path d="M196.381 9.49958V15.3329C197.095 14.6912 197.547 13.4493 197.547 12.4162C197.547 11.3832 197.095 10.1412 196.381 9.49958ZM189.381 15.3329H190.954L195.214 18.1726V6.65991L190.954 9.49958H189.381C188.737 9.49958 188.214 10.0228 188.214 10.6662V14.1662C188.214 14.8097 188.737 15.3329 189.381 15.3329Z" fill="#C9AC8C"/>
<path d="M147.047 12.4163L140.047 7.41626V12.4163V17.4163L147.047 12.4163ZM133.047 7.41626V17.4163L140.047 12.4163L133.047 7.41626Z" fill="#C9AC8C"/>
<path d="M61.0474 12.4163V7.41626L54.0474 12.4163L61.0474 17.4163V12.4163ZM68.0474 7.41626L61.0474 12.4163L68.0474 17.4163V7.41626Z" fill="#C9AC8C"/>
<rect x="88.2964" y="0.305176" width="24.502" height="24.502" rx="4" fill="#C9AC8C"/>
<path d="M95.7983 6.41626V18.4163L105.798 12.4163L95.7983 6.41626Z" fill="#202020"/>
</svg>
